<svg xmlns="http://www.w3.org/2000/svg" version="1.1" xmlns:xlink="http://www.w3.org/1999/xlink" xmlns:svgjs="http://svgjs.com/svgjs" width="1440" height="600" preserveAspectRatio="none" viewBox="0 0 1440 600"><g mask="url(&quot;#SvgjsMask1004&quot;)" fill="none"><rect width="1440" height="600" x="0" y="0" fill="url(#SvgjsRadialGradient1005)"></rect><path d="M87 600L687 0L813 0L213 600z" fill="url(#SvgjsLinearGradient1006)"></path><path d="M546.2 600L1146.2 0L1734.2 0L1134.2 600z" fill="url(#SvgjsLinearGradient1006)"></path><path d="M1378 600L778 0L464.5 0L1064.5 600z" fill="url(#SvgjsLinearGradient1007)"></path><path d="M935.8 600L335.79999999999995 0L253.29999999999995 0L853.3 600z" fill="url(#SvgjsLinearGradient1007)"></path><path d="M1124.6437000751557 600L1440 284.6437000751556L1440 600z" fill="url(#SvgjsLinearGradient1006)"></path><path d="M0 600L315.3562999248444 600L 0 284.6437000751556z" fill="url(#SvgjsLinearGradient1007)"></path></g><defs><mask id="SvgjsMask1004"><rect width="1440" height="600" fill="#ffffff"></rect></mask><radialGradient cx="100%" cy="100%" r="1560" gradientUnits="userSpaceOnUse" id="SvgjsRadialGradient1005"><stop stop-color="rgba(0, 255, 223, 1)" offset="0"></stop><stop stop-color="rgba(0, 111, 253, 1)" offset="1"></stop></radialGradient><linearGradient x1="0%" y1="100%" x2="100%" y2="0%" id="SvgjsLinearGradient1006"><stop stop-color="rgba(15, 70, 185, 0.2)" offset="0"></stop><stop stop-opacity="0" stop-color="rgba(15, 70, 185, 0.2)" offset="0.66"></stop></linearGradient><linearGradient x1="100%" y1="100%" x2="0%" y2="0%" id="SvgjsLinearGradient1007"><stop stop-color="rgba(15, 70, 185, 0.2)" offset="0"></stop><stop stop-opacity="0" stop-color="rgba(15, 70, 185, 0.2)" offset="0.66"></stop></linearGradient></defs></svg>